<svg xmlns="http://www.w3.org/2000/svg" width="19.912" height="15.168" viewBox="0 0 19.912 15.168"><defs><style>.a{fill:#bcbcbc;}</style></defs><g transform="translate(0 -61)"><g transform="translate(1 61)"><g transform="translate(0 0)"><path class="a" d="M42.883,61H26.471a1.73,1.73,0,0,0-.75.175l8.917,8.917,2-1.921h0l7-7A1.73,1.73,0,0,0,42.883,61Z" transform="translate(-25.721 -61)"/></g></g><g transform="translate(13.154 62.001)"><g transform="translate(0 0)"><path class="a" d="M344.8,86.728l-6.584,6.583,6.583,6.583a1.73,1.73,0,0,0,.175-.75V87.478A1.73,1.73,0,0,0,344.8,86.728Z" transform="translate(-338.213 -86.728)"/></g></g><g transform="translate(0 62)"><g transform="translate(0 0)"><path class="a" d="M.175,86.721a1.73,1.73,0,0,0-.175.75V99.138a1.73,1.73,0,0,0,.175.75L6.759,93.3Z" transform="translate(0 -86.721)"/></g></g><g transform="translate(1 69.409)"><g transform="translate(0 0)"><path class="a" d="M37.043,277.211l-2,1.921a.583.583,0,0,1-.825,0L32.3,277.211l-6.584,6.583a1.73,1.73,0,0,0,.75.176H42.876a1.73,1.73,0,0,0,.75-.175Z" transform="translate(-25.714 -277.211)"/></g></g></g></svg>